<?xml version="1.0" encoding="iso-8859-1"?>
<!-- Generator: Adobe Illustrator 18.1.1, SVG Export Plug-In . SVG Version: 6.00 Build 0)  -->
<svg version="1.1" id="Capa_1" xmlns="http://www.w3.org/2000/svg" xmlns:xlink="http://www.w3.org/1999/xlink" x="0px" y="0px"
	 viewBox="0 0 256.553 256.553" style="enable-background:new 0 0 256.553 256.553;" xml:space="preserve">
<g>
	<path style="fill:#030104;" d="M247.277,255.007c-17.086-26.192-14.337-56.491-1.542-88.865c-6.191-1.604-12.112-3.37-17.765-5.296
		V99.429l12.743,0.062c-22.667-14.249-34.901-31.344-40.569-50.229c-6.43,21.826-18.812,38.838-38.638,49.844l11.212,0.056v30.614
		c-6.632-6.105-12.295-12.781-17-20.027V50.168l12.742,0.061C145.794,35.979,133.559,18.885,127.891,0
		c-6.429,21.826-18.812,38.838-38.638,49.842l11.212,0.056v58.141c-5.228,6.551-10.844,12.812-17.001,18.672V99.04l12.743,0.062
		c-22.665-14.249-34.901-31.344-40.57-50.229C49.209,70.7,36.825,87.712,17.001,98.717l11.212,0.056v61.316
		c-5.949,2.026-7.819,2.609-14.506,4.091c9.533,30.397,8.452,66.228-4.431,92.373L247.277,255.007z M205.143,106.608h14.665v15.118
		h-14.665V106.608z M205.143,129.661h14.665v14.816h-14.665V129.661z M212.545,181.969l-0.164,63.686l-21.481,7.284v-67.808
		L212.545,181.969z M181.939,106.608h15.27v15.118h-15.27V106.608z M181.939,129.661h15.27v14.816h-15.27V129.661z M132.113,60.44
		h14.665v15.116h-14.665V60.44z M132.113,83.491h14.665v14.817h-14.665V83.491z M127.92,185.126h18.934v32.068H127.92V185.126z
		 M127.727,221.254h18.935v32.068h-18.935V221.254z M108.909,60.44h15.27v15.116h-15.27V60.44z M108.909,83.491h15.27v14.817h-15.27
		V83.491z M104.351,185.126h18.934v32.068h-18.934V185.126z M104.351,221.254h18.934v32.068h-18.934V221.254z M59.093,106.608
		h14.664v15.118H59.093V106.608z M59.093,129.661h14.664v14.816H59.093V129.661z M73.918,184.917l0.139,66.148l-26.89,1.874v-67.808
		L73.918,184.917z M35.888,106.608h15.27v15.118h-15.27C35.888,121.726,35.888,106.608,35.888,106.608z M35.888,129.661h15.27
		v14.816h-15.27C35.888,144.477,35.888,129.661,35.888,129.661z"/>
</g>
<g>
</g>
<g>
</g>
<g>
</g>
<g>
</g>
<g>
</g>
<g>
</g>
<g>
</g>
<g>
</g>
<g>
</g>
<g>
</g>
<g>
</g>
<g>
</g>
<g>
</g>
<g>
</g>
<g>
</g>
</svg>
